<?xml version="1.0" standalone="no"?>
<!DOCTYPE svg PUBLIC "-//W3C//DTD SVG 20010904//EN"
 "http://www.w3.org/TR/2001/REC-SVG-20010904/DTD/svg10.dtd">
<svg version="1.0" xmlns="http://www.w3.org/2000/svg"
 width="500.000000pt" height="500.000000pt" viewBox="0 0 500.000000 500.000000"
 preserveAspectRatio="xMidYMid meet">

<g transform="translate(0.000000,500.000000) scale(0.100000,-0.100000)"
fill="#FF5900" stroke="none">
<path d="M2430 4785 l0 -106 98 3 97 3 0 100 0 100 -97 3 -98 3 0 -106z"/>
<path d="M1760 4742 c-96 -40 -93 -31 -52 -132 20 -49 40 -90 44 -90 3 0 43
14 87 31 55 21 81 36 81 47 0 32 -65 171 -80 171 -8 0 -44 -12 -80 -27z"/>
<path d="M3186 4669 c-20 -51 -35 -93 -34 -94 3 -3 119 -52 154 -65 18 -7 24
1 57 79 20 47 37 89 37 92 0 7 -154 79 -168 79 -5 0 -26 -41 -46 -91z"/>
<path d="M2399 4448 c-174 -17 -410 -81 -559 -151 -596 -281 -966 -928 -901
-1577 20 -193 66 -358 152 -540 83 -174 162 -281 353 -478 135 -141 180 -194
209 -250 80 -152 80 -150 86 -517 6 -312 8 -332 28 -370 28 -53 68 -89 123
-112 42 -17 87 -18 640 -18 549 0 599 1 642 18 57 22 123 91 137 144 6 21 11
160 11 320 1 262 3 288 24 365 44 160 75 207 237 369 213 212 287 312 389 518
39 80 100 244 118 321 54 222 54 454 2 690 -135 607 -609 1095 -1194 1230
-159 37 -359 52 -497 38z m416 -217 c296 -61 563 -219 768 -456 159 -184 259
-382 312 -620 26 -114 31 -391 10 -516 -52 -318 -193 -567 -462 -823 -138
-131 -209 -232 -268 -381 l-31 -80 -257 -3 -257 -2 0 619 0 619 265 263 c146
144 265 268 265 274 0 6 -28 39 -63 73 l-63 63 -245 -245 c-134 -135 -251
-246 -260 -246 -9 0 -126 111 -262 247 l-246 246 -66 -68 c-36 -37 -64 -69
-63 -71 2 -2 123 -124 271 -271 l267 -269 -2 -614 -3 -615 -257 -3 -256 -2
-21 55 c-62 164 -115 241 -287 410 -78 77 -169 177 -202 222 -105 144 -205
365 -242 538 -20 88 -30 308 -20 428 20 238 85 424 219 627 70 106 280 318
379 384 211 139 385 204 647 240 73 10 334 -4 430 -23z m295 -3161 l0 -80
-582 2 -583 3 -3 64 c-2 35 -1 70 2 77 4 12 107 14 586 14 l580 0 0 -80z m-3
-283 c6 -7 5 -139 -2 -145 -6 -6 -1147 -2 -1156 4 -9 5 -13 137 -5 145 7 7
1155 3 1163 -4z"/>
<path d="M1090 4295 l-65 -65 72 -72 72 -72 64 59 c36 33 65 66 66 73 1 14
-119 142 -134 142 -6 0 -40 -29 -75 -65z"/>
<path d="M3817 4292 l-68 -69 66 -64 c36 -35 69 -65 73 -67 4 -1 39 29 77 68
l69 70 -64 65 c-35 36 -69 65 -75 65 -6 0 -41 -31 -78 -68z"/>
<path d="M693 3713 c-3 -10 -16 -42 -29 -72 -13 -29 -24 -61 -24 -70 0 -11 29
-28 89 -53 l90 -36 14 31 c43 93 59 139 51 147 -13 13 -150 70 -169 70 -8 0
-18 -8 -22 -17z"/>
<path d="M4273 3683 c-46 -20 -83 -41 -83 -47 0 -24 63 -166 74 -166 15 0 159
59 170 70 9 9 2 32 -41 128 -13 28 -27 52 -31 51 -4 -1 -44 -17 -89 -36z"/>
<path d="M504 2947 c-3 -8 -4 -52 -2 -98 l3 -84 100 0 100 0 2 98 1 97 -99 0
c-74 0 -101 -3 -105 -13z"/>
<path d="M4348 2948 c-8 -22 -10 -127 -3 -159 l7 -30 101 3 102 3 3 75 c5 124
8 120 -107 120 -70 0 -100 -4 -103 -12z"/>
<path d="M715 2226 c-94 -38 -95 -41 -46 -149 l30 -67 48 18 c109 43 133 55
133 66 0 22 -65 166 -75 165 -5 0 -46 -15 -90 -33z"/>
<path d="M4226 2209 c-8 -19 -24 -56 -36 -83 -12 -29 -17 -53 -12 -58 12 -12
150 -68 167 -68 13 0 75 129 75 156 0 15 -97 65 -154 80 -23 5 -28 2 -40 -27z"/>
<path d="M1105 1573 c-33 -36 -61 -68 -63 -72 -1 -3 27 -36 63 -71 l65 -65 72
72 72 72 -59 64 c-33 36 -67 65 -75 65 -8 1 -42 -29 -75 -65z"/>
<path d="M3806 1573 l-59 -65 71 -71 70 -70 66 64 c36 35 66 69 66 74 0 17
-124 135 -140 134 -8 0 -41 -30 -74 -66z"/>
<path d="M2057 252 c-14 -3 -17 -18 -17 -98 l0 -94 488 2 487 3 3 80 c1 44 -1
85 -6 92 -5 8 -131 12 -473 15 -256 2 -473 2 -482 0z"/>
</g>
</svg>
