<?xml version="1.0" encoding="UTF-8"?>
<!DOCTYPE svg PUBLIC "-//W3C//DTD SVG 1.1//EN" "http://www.w3.org/Graphics/SVG/1.1/DTD/svg11.dtd">
<svg xmlns="http://www.w3.org/2000/svg" version="1.1" width="195px" height="215px" style="shape-rendering:geometricPrecision; text-rendering:geometricPrecision; image-rendering:optimizeQuality; fill-rule:evenodd; clip-rule:evenodd" xmlns:xlink="http://www.w3.org/1999/xlink">
<g><path style="opacity:0.073" fill="#dadddd" d="M 98.5,1.5 C 98.1667,2.16667 97.8333,2.83333 97.5,3.5C 96.4265,2.74943 96.2599,1.74943 97,0.5C 97.3826,1.05596 97.8826,1.38929 98.5,1.5 Z"/></g>
<g><path style="opacity:1" fill="#2b3d42" d="M 97.5,3.5 C 97.8333,2.83333 98.1667,2.16667 98.5,1.5C 99.7211,0.535369 101.054,0.702035 102.5,2C 115.263,10.4646 127.763,19.2979 140,28.5C 145,42.8333 150,57.1667 155,71.5C 155.82,73.728 155.487,75.728 154,77.5C 139.713,66.8813 125.713,55.8813 112,44.5C 107.258,30.772 102.425,17.1054 97.5,3.5 Z"/></g>
<g><path style="opacity:1" fill="#f7fafa" d="M 102.5,6.5 C 114.229,13.7843 125.729,21.451 137,29.5C 142.3,43.4 146.967,57.4 151,71.5C 139,62.1667 127,52.8333 115,43.5C 110.526,31.2429 106.359,18.9096 102.5,6.5 Z"/></g>
<g><path style="opacity:1" fill="#273b3e" d="M -0.5,20.5 C -0.5,18.8333 -0.5,17.1667 -0.5,15.5C 0.423175,14.6971 1.42317,14.5304 2.5,15C 15.6667,24.1667 28.8333,33.3333 42,42.5C 47.0733,57.8868 52.24,73.2202 57.5,88.5C 57.1322,89.91 56.2989,90.91 55,91.5C 41.6438,80.6429 28.1438,69.9762 14.5,59.5C 9.28516,46.5128 4.28516,33.5128 -0.5,20.5 Z"/></g>
<g><path style="opacity:1" fill="#f7fafa" d="M 3.5,20.5 C 15.4019,27.7215 27.0686,35.3882 38.5,43.5C 43.5978,56.5258 48.2644,69.6925 52.5,83C 52.1667,83.5 51.8333,84 51.5,84.5C 39.5758,75.2872 27.7425,65.9538 16,56.5C 11.7272,44.5141 7.56053,32.5141 3.5,20.5 Z"/></g>
<g><path style="opacity:1" fill="#f9fcfc" d="M 161.5,92.5 C 191.463,114.346 198.963,142.346 184,176.5C 165.106,203.819 138.939,215.986 105.5,213C 81.0041,209.675 61.8374,197.841 48,177.5C 35.0343,152.323 37.201,128.657 54.5,106.5C 62.6313,107.038 66.6313,103.038 66.5,94.5C 97.7416,75.2221 129.408,74.5554 161.5,92.5 Z"/></g>
<g><path style="opacity:1" fill="#304145" d="M 162.5,86.5 C 162.356,88.953 162.022,90.953 161.5,92.5C 129.408,74.5554 97.7416,75.2221 66.5,94.5C 65.8333,94.5 65.1667,94.5 64.5,94.5C 90.9488,76.1529 119.282,72.8196 149.5,84.5C 154.535,81.3954 158.868,82.0621 162.5,86.5 Z"/></g>
<g><path style="opacity:1" fill="#122d32" d="M 64.5,94.5 C 65.1667,94.5 65.8333,94.5 66.5,94.5C 66.6313,103.038 62.6313,107.038 54.5,106.5C 53.8333,105.833 53.1667,105.167 52.5,104.5C 51.0871,98.3814 53.5871,94.7147 60,93.5C 61.5328,93.7728 63.0328,94.1062 64.5,94.5 Z"/></g>
<g><path style="opacity:0.769" fill="#414d50" d="M 162.5,86.5 C 163.165,88.3691 163.831,90.3691 164.5,92.5C 188.064,109.682 197.231,132.682 192,161.5C 185.193,183.287 171.36,198.787 150.5,208C 143.473,210.512 136.473,212.679 129.5,214.5C 120.167,214.5 110.833,214.5 101.5,214.5C 81.781,210.967 65.281,201.634 52,186.5C 32.6055,159.033 32.7722,131.7 52.5,104.5C 53.1667,105.167 53.8333,105.833 54.5,106.5C 37.201,128.657 35.0343,152.323 48,177.5C 61.8374,197.841 81.0041,209.675 105.5,213C 138.939,215.986 165.106,203.819 184,176.5C 198.963,142.346 191.463,114.346 161.5,92.5C 162.022,90.953 162.356,88.953 162.5,86.5 Z"/></g>
<g><path style="opacity:1" fill="#1f545d" d="M 83.5,108.5 C 113.502,108.333 143.502,108.5 173.5,109C 178.333,111.167 181.833,114.667 184,119.5C 184.667,136.167 184.667,152.833 184,169.5C 181.886,173.948 178.719,177.448 174.5,180C 144.167,180.667 113.833,180.667 83.5,180C 77.7979,177.635 74.2979,173.469 73,167.5C 72.3333,151.833 72.3333,136.167 73,120.5C 74.9635,115.044 78.4635,111.044 83.5,108.5 Z"/></g>
<g><path style="opacity:1" fill="#000102" d="M 84.5,110.5 C 114.169,110.333 143.835,110.5 173.5,111C 177.388,113.222 180.221,116.388 182,120.5C 182.667,136.5 182.667,152.5 182,168.5C 180.073,173.428 176.573,176.594 171.5,178C 142.5,178.667 113.5,178.667 84.5,178C 79.5723,176.073 76.4056,172.573 75,167.5C 74.3333,152.167 74.3333,136.833 75,121.5C 76.5992,116.406 79.7658,112.739 84.5,110.5 Z"/></g>
<g><path style="opacity:1" fill="#1091a8" d="M 135.5,155.5 C 140.5,155.5 145.5,155.5 150.5,155.5C 150.666,159.846 150.499,164.179 150,168.5C 146.797,173.916 142.464,174.916 137,171.5C 135.661,166.264 135.161,160.93 135.5,155.5 Z"/></g>
<g><path style="opacity:1" fill="#045365" d="M 148.5,144.5 C 155.833,145.833 163.167,145.833 170.5,144.5C 171.043,144.56 171.376,144.893 171.5,145.5C 163.5,146.833 155.5,146.833 147.5,145.5C 147.624,144.893 147.957,144.56 148.5,144.5 Z"/></g>
<g><path style="opacity:1" fill="#025563" d="M 112.5,143.5 C 119.424,145.463 126.757,146.13 134.5,145.5C 127.018,146.492 119.352,146.825 111.5,146.5C 111.263,145.209 111.596,144.209 112.5,143.5 Z"/></g>
<g><path style="opacity:1" fill="#0992ac" d="M 134.5,145.5 C 126.757,146.13 119.424,145.463 112.5,143.5C 115.346,137.145 118.846,131.145 123,125.5C 127.615,131.732 131.448,138.399 134.5,145.5 Z"/></g>
<g><path style="opacity:1" fill="#0a92aa" d="M 170.5,144.5 C 163.167,145.833 155.833,145.833 148.5,144.5C 151.386,137.731 155.052,131.398 159.5,125.5C 163.443,131.725 167.109,138.058 170.5,144.5 Z"/></g>
</svg>
